<!-- icon666.com - MILLIONS vector ICONS FREE --><svg id="Capa_1" enable-background="new 0 0 512 512" viewBox="0 0 512 512" xmlns="http://www.w3.org/2000/svg"><g><path d="m437.02 74.98c-48.353-48.351-112.64-74.98-181.02-74.98s-132.667 26.629-181.02 74.98c-48.351 48.352-74.98 112.64-74.98 181.02 0 44.324 11.509 88.003 33.283 126.314 2.047 3.602 6.625 4.861 10.227 2.814 3.601-2.047 4.861-6.625 2.814-10.227-20.492-36.054-31.324-77.171-31.324-118.901 0-132.888 108.112-241 241-241s241 108.112 241 241-108.112 241-241 241c-75.283 0-144.871-34.229-190.92-93.908-2.531-3.28-7.241-3.887-10.52-1.355-3.28 2.53-3.887 7.24-1.356 10.52 23.414 30.344 53.84 55.454 87.988 72.616 35.815 18 74.443 27.127 114.808 27.127 68.38 0 132.667-26.629 181.02-74.98 48.351-48.352 74.98-112.64 74.98-181.02s-26.629-132.668-74.98-181.02z" fill="#000000" style="fill: rgb(19, 16, 16);"></path><path d="m145.659 68.528c-32.033 18.894-58.875 45.855-77.623 77.97-19.323 33.1-29.536 70.964-29.536 109.502 0 58.097 22.624 112.715 63.704 153.796 41.081 41.08 95.7 63.704 153.796 63.704 45.831 0 89.666-14.088 126.767-40.742 3.364-2.416 4.132-7.103 1.715-10.467s-7.103-4.133-10.467-1.715c-34.535 24.81-75.344 37.924-118.015 37.924-111.659 0-202.5-90.841-202.5-202.5 0-71.367 38.233-138.251 99.779-174.552 3.568-2.104 4.754-6.702 2.65-10.271-2.105-3.567-6.705-4.755-10.27-2.649z" fill="#000000" style="fill: rgb(19, 16, 16);"></path><path d="m404.917 411.566c1.926 0 3.853-.738 5.318-2.212 40.797-41.03 63.265-95.492 63.265-153.354 0-58.097-22.624-112.715-63.704-153.796-41.081-41.08-95.7-63.704-153.796-63.704-26.81 0-52.989 4.822-77.81 14.333-3.868 1.482-5.802 5.819-4.32 9.688s5.819 5.805 9.687 4.319c23.101-8.852 47.474-13.34 72.443-13.34 111.659 0 202.5 90.841 202.5 202.5 0 53.871-20.918 104.578-58.901 142.778-2.92 2.938-2.907 7.686.03 10.606 1.464 1.456 3.376 2.182 5.288 2.182z" fill="#000000" style="fill: rgb(19, 16, 16);"></path><path d="m321.909 317.811c1.018.469 2.085.691 3.137.691 2.835 0 5.549-1.616 6.815-4.36l50.75-110c1.735-3.761.093-8.217-3.668-9.952-3.76-1.733-8.217-.093-9.952 3.669l-50.75 110c-1.735 3.76-.093 8.216 3.668 9.952z" fill="#000000" style="fill: rgb(19, 16, 16);"></path><path d="m333.943 220.282c0-14.768-10.808-26.782-24.093-26.782s-24.093 12.015-24.093 26.782 10.808 26.781 24.093 26.781 24.093-12.013 24.093-26.781zm-24.093 11.781c-4.929 0-9.093-5.396-9.093-11.781 0-6.387 4.164-11.782 9.093-11.782s9.093 5.396 9.093 11.782-4.164 11.781-9.093 11.781z" fill="#000000" style="fill: rgb(19, 16, 16);"></path><path d="m390.15 318.5c13.285 0 24.093-12.015 24.093-26.782s-10.808-26.782-24.093-26.782-24.093 12.015-24.093 26.782 10.808 26.782 24.093 26.782zm0-38.564c4.929 0 9.093 5.396 9.093 11.782s-4.164 11.782-9.093 11.782-9.093-5.396-9.093-11.782 4.164-11.782 9.093-11.782z" fill="#000000" style="fill: rgb(19, 16, 16);"></path><path d="m167.06 193.5h-40.702c-3.669 0-6.799 2.654-7.399 6.274l-8.063 48.667c-.463 2.792.695 5.603 2.979 7.273 2.284 1.673 5.324 1.911 7.845.624.073-.037.446-.223 1.058-.498 4.692-2.112 8.735-3.606 18.068-3.606 13.274-.273 26.622 12.057 25.597 27.007-.692 13.33-11.702 23.984-25.064 24.254-12.983.252-24.127-9.215-25.917-22.044-.573-4.102-4.357-6.962-8.465-6.391-4.103.572-6.964 4.362-6.392 8.465 2.802 20.074 20.025 34.976 40.247 34.975 21.063.147 39.486-17.144 40.571-38.481 1.685-21.678-17.524-43.342-40.577-42.784-5.265 0-9.424.406-13.083 1.166l4.954-29.9h34.342c4.142 0 7.5-3.357 7.5-7.5s-3.357-7.501-7.499-7.501z" fill="#000000" style="fill: rgb(19, 16, 16);"></path><path d="m195.938 231.562v48.877c0 20.987 17.075 38.062 38.062 38.062s38.062-17.074 38.062-38.062v-48.877c0-20.987-17.075-38.062-38.062-38.062s-38.062 17.074-38.062 38.062zm61.124 0v48.877c0 12.716-10.346 23.062-23.062 23.062s-23.062-10.346-23.062-23.062v-48.877c0-12.716 10.346-23.062 23.062-23.062s23.062 10.346 23.062 23.062z" fill="#000000" style="fill: rgb(19, 16, 16);"></path></g></svg>