<!-- icon666.com - MILLIONS vector ICONS FREE --><svg id="Layer_2" enable-background="new 0 0 32 32" viewBox="0 0 32 32" xmlns="http://www.w3.org/2000/svg"><path d="m23.422 29.432c-.001 0-.003 0-.004 0l-22.422-.103c-.553-.003-.998-.453-.996-1.005.002-.551.45-.996 1-.996h.004l22.422.104c.553.002.998.452.996 1.004-.002.551-.449.996-1 .996zm-10.901-5.791c-.471 0-.78-.199-.957-.365-1.131-1.064.368-3.237.869-4.31.516-1.105 1.596-2.647 2.459-3.51 0 0 10.409-10.411 10.427-10.428l.752-.752c1.168-1.17 3.067-1.174 4.232-.01s1.16 3.063-.01 4.232c-3.727 3.727-7.454 7.453-11.181 11.18-.851.851-2.346 1.965-3.405 2.538-.925.498-2.09 1.425-3.186 1.425zm13.496-16.483-9.711 9.712c-.699.699-1.643 2.046-2.061 2.942l-.575 1.23 1.086-.586c.884-.478 2.231-1.482 2.942-2.192l9.712-9.712zm1.414-1.415 1.394 1.394.054-.054c.39-.39.394-1.02.01-1.404-.385-.383-1.014-.379-1.404.01z"></path></svg>