<!-- icon666.com - MILLIONS vector ICONS FREE --><svg version="1.1" id="Capa_1" xmlns="http://www.w3.org/2000/svg" xmlns:xlink="http://www.w3.org/1999/xlink" x="0px" y="0px" viewBox="0 0 512 512" style="enable-background:new 0 0 512 512;" xml:space="preserve"><path style="fill:#E2324E;" d="M459.985,302.033c58.415-54.155,55.873-147.925-0.518-204.317 C403.25,41.5,312.328,41.161,255.681,96.679c-0.004-0.004-0.009-0.009-0.013-0.013c-56.568-56.568-148.281-56.568-204.849,0 s-58.728,150.529,0,204.849c49.34,45.636,204.323,154.571,204.323,154.571S410.687,347.736,459.985,302.033z"></path><path style="fill:#FFFFFF;" d="M43.822,201.56H28.663c0-5.508,0.368-11.046,1.093-16.46l15.025,2.014 C44.146,191.863,43.822,196.723,43.822,201.56z M47.584,173.256l-14.627-3.985c5.534-20.309,16.417-39.001,31.471-54.056 c23.809-23.808,56.995-37.201,90.616-36.556l-0.29,15.156c-29.54-0.573-58.688,11.201-79.606,32.119 C61.957,139.125,52.425,155.49,47.584,173.256z"></path><path style="fill:#A00B3F;" d="M501.226,180.986c-4.36,29.308-17.95,57.199-41.242,78.792c-5.852,5.425-13.213,11.739-21.62,18.643 l-41.189-73.789l-43.871,78.594l-87.005,14.255l58.09,67.114c-38.489,27.81-69.247,49.237-69.247,49.237 S100.16,304.896,50.819,259.26c-23.547-21.779-37.295-49.931-41.683-79.489c-6.417,43.832,7.028,89.689,41.683,121.743 c49.34,45.636,204.323,154.572,204.323,154.572s155.545-108.35,204.843-154.053C494.354,270.17,507.612,224.594,501.226,180.986z"></path><polygon style="fill:#FDD93B;" points="397.175,240.004 427.624,301.701 495.711,311.595 446.443,359.619 458.075,427.431 397.175,395.414 336.277,427.431 347.907,359.619 298.639,311.595 366.726,301.701 "></polygon><polygon style="fill:#F5A800;" points="397.175,374.191 340.278,404.104 336.277,427.431 397.175,395.414 458.074,427.431 454.073,404.104 "></polygon><path d="M255.163,446.824C229.716,428.829,99.774,336.468,55.966,295.95c-25.599-23.678-40.082-56.454-40.782-92.291 c-0.737-37.8,14.205-74.844,40.994-101.633c53.473-53.472,140.446-53.525,193.977-0.151l5.146,5.789l5.684-5.571 c53.505-52.439,140.14-51.997,193.119,0.983c49.12,49.12,54.898,128.214,13.156,180.064l11.808,9.506 c22.662-28.15,33.629-64.265,30.879-101.692c-2.736-37.22-18.76-72.235-45.121-98.598c-28.598-28.597-66.617-44.45-107.056-44.639 c-0.245-0.001-0.487-0.001-0.732-0.001c-37.685,0-73.355,13.617-101.305,38.539c-28.108-25.587-64.223-39.594-102.491-39.594 c-40.715,0-78.994,15.855-107.784,44.645C15.771,120.995-0.788,162.054,0.029,203.954c0.779,39.999,16.99,76.622,45.644,103.124 c49.148,45.458,198.767,150.749,205.112,155.209l4.339,3.05l4.353-3.032c0.277-0.193,28.164-19.629,63.534-45.113l-8.861-12.299 C287.031,424.431,264.332,440.399,255.163,446.824z"></path><path d="M512,306.302l-79.342-11.529l-35.482-71.896l-35.482,71.896l-79.342,11.529l57.413,55.963l-13.553,79.021l70.965-37.309 l70.966,37.309l-13.554-79.021L512,306.302z M397.175,386.851l-50.832,26.724l9.708-56.602l-41.123-40.086l56.832-8.258 l25.416-51.497l25.415,51.498l56.832,8.258l-41.123,40.086l9.708,56.602L397.175,386.851z"></path><rect x="316.831" y="250.614" width="15.159" height="15.159"></rect><rect x="445.18" y="250.614" width="15.159" height="15.159"></rect><rect x="296.618" y="362.793" width="15.159" height="15.159"></rect><polygon points="402.228,315.801 387.069,315.801 387.069,331.466 371.404,331.466 371.404,346.625 387.069,346.625 387.069,362.29 402.228,362.29 402.228,346.625 417.893,346.625 417.893,331.466 402.228,331.466 "></polygon></svg>