<!-- icon666.com - MILLIONS vector ICONS FREE --><svg id="expanded" enable-background="new 0 0 512 512" viewBox="0 0 512 512" xmlns="http://www.w3.org/2000/svg"><g><g><path d="m321.405 490.049h-130.81c-8.837 0-16-7.163-16-16v-117.031c0-19.796 7.709-38.406 21.706-52.403 14.005-13.993 32.61-21.696 52.394-21.696h14.609c19.786 0 38.392 7.704 52.39 21.692 14.003 14.002 21.712 32.612 21.712 52.407v117.031c-.001 8.837-7.164 16-16.001 16zm-114.81-32h98.811v-101.031c0-11.247-4.381-21.821-12.335-29.776-7.951-7.945-18.524-12.323-29.767-12.323h-14.609c-11.241 0-21.814 4.378-29.771 12.328-7.948 7.948-12.328 18.523-12.328 29.771v101.031z" fill="#000000" style="fill: rgb(0, 0, 0);"></path></g><g><path d="m363.134 490.049h-214.27c-34.474 0-66.882-13.424-91.254-37.798-24.373-24.385-37.795-56.795-37.795-91.263v-126.65c0-42.065 20.418-81.793 54.617-106.271l122.118-87.419c17.091-12.231 37.23-18.696 58.245-18.696 20.771 0 40.718 6.329 57.686 18.304l124.37 87.79c34.648 24.451 55.334 64.367 55.334 106.772v126.17c0 34.468-13.422 66.878-37.793 91.261-24.377 24.376-56.786 37.8-91.258 37.8zm-108.339-436.097c-14.295 0-27.994 4.397-39.618 12.717l-122.118 87.419c-25.825 18.484-41.243 48.484-41.243 80.25v126.65c0 25.923 10.095 50.299 28.426 68.638 18.326 18.328 42.697 28.423 68.623 28.423h214.27c25.925 0 50.298-10.095 68.628-28.425 18.328-18.337 28.423-42.713 28.423-68.636v-126.17c0-32.021-15.621-62.163-41.786-80.629l-124.371-87.79c-11.54-8.142-25.107-12.447-39.234-12.447z" fill="#000000" style="fill: rgb(0, 0, 0);"></path></g><g><path d="m255.995 232.389c-30.939 0-56.111-25.172-56.111-56.111 0-30.938 25.172-56.109 56.111-56.109 30.944 0 56.119 25.171 56.119 56.109 0 30.939-25.175 56.111-56.119 56.111zm0-80.221c-13.295 0-24.111 10.815-24.111 24.109 0 13.295 10.816 24.111 24.111 24.111 13.3 0 24.119-10.816 24.119-24.111 0-13.294-10.819-24.109-24.119-24.109z" fill="#000000" style="fill: rgb(0, 0, 0);"></path></g></g></svg>