<!-- icon666.com - MILLIONS vector ICONS FREE --><svg viewBox="0 -38 303.44334 303" xmlns="http://www.w3.org/2000/svg"><path d="m181.878906 194.257812s67.699219-36.300781 94.601563-62.898437l19.699219 39.5c-40.398438 47.5-119.699219 21.898437-119.699219 21.898437-87.402344-34.199218-167.300781-185.300781-167.300781-185.300781" fill="#fefe71"></path><path d="m167.679688 70.457031c-17.300782-18.097656-57.898438-33-91.398438-34.398437-48-1.898438-68.203125-20.101563-68.203125-20.101563s-14.898437 108.5 34.601563 174.703125c.101562.199219.300781.398438.398437.597656.5.601563.902344 1.199219 1.402344 1.800782 2.097656 2.699218 4.398437 5.398437 6.898437 7.898437 34.199219 34.300781 89.699219 34.5 124 .402344 34.300782-34.101563 34.300782-89.601563 0-124-2.398437-2.402344-5-4.699219-7.699218-6.902344zm0 0" fill="#fe8e46"></path><path d="m168.679688 61.859375c-17.300782-18.101563-57.898438-33-91.398438-34.402344-48-1.898437-68.203125-20.097656-68.203125-20.097656s-1.796875 12.800781-2.097656 32.398437c9.597656 5.5 29.199219 13.902344 61 15.199219 33.597656 1.300781 74.097656 16.203125 91.398437 34.300781v.101563c2.699219 2.097656 5.300782 4.398437 7.800782 6.898437 20.601562 20.699219 28.800781 49 24.601562 75.699219 17.699219-33.097656 12.5-75.199219-15.402344-103.199219-2.398437-2.5-5-4.800781-7.699218-6.898437zm0 0" fill="#e56823"></path><g fill="#463218"><path d="m114.679688 225.160156c-24.300782 0-48.699219-9.300781-67.199219-27.902344-2.402344-2.5-4.902344-5.199218-7.199219-8.097656-.101562-.101562-.203125-.300781-.402344-.402344-.398437-.5-.699218-1-1.097656-1.5l-.5-.699218c-.101562-.199219-.203125-.300782-.300781-.5-14.601563-19.601563-33-55.601563-37.101563-115.800782-2.5-35.699218 1.101563-62.800781 1.300782-64 .398437-2.597656 2.101562-4.699218 4.5-5.597656 2.398437-.902344 5.199218-.402344 7.101562 1.398438 0 0 4.796875 4.101562 15 8.398437 9.398438 4 25.597656 8.902344 48.796875 9.800781 35.601563 1.402344 77.703125 17.300782 95.902344 36.199219 2.898437 2.300781 5.5 4.703125 8 7.101563 17.898437 17.898437 27.699219 41.699218 27.699219 67 0 25.300781-9.898438 49-27.800782 66.898437-18.398437 18.601563-42.5 27.703125-66.699218 27.703125zm-64-45.300781c.101562.097656.199218.199219.300781.398437 2.097656 2.699219 4.199219 5 6.398437 7.199219 15.800782 15.800781 36.5 23.800781 57.300782 23.800781 20.601562 0 41.101562-7.800781 56.800781-23.398437 15.199219-15.199219 23.597656-35.402344 23.597656-57 0-21.601563-8.398437-41.800781-23.597656-57.101563-2.199219-2.199218-4.5-4.300781-7.199219-6.398437-.300781-.199219-.601562-.5-.800781-.699219 0 0-.101563-.101562-.101563-.203125-15.898437-16.398437-54.5-30.699219-86.398437-32-30.902344-1.199219-51-9-62-14.898437-2.101563 28.898437-3.699219 107.5 34.300781 158.398437l.796875 1.101563c.203125.199218.402344.5.601563.800781zm0 0"></path><path d="m223.878906 206.558594c-.898437 0-1.898437 0-2.800781 0-25.597656-.5-45.898437-6.898438-46.699219-7.199219-.097656 0-.300781-.101563-.398437-.101563-37.5-14.699218-77.699219-51-119.5-107.898437-30.902344-42-51.199219-80.300781-51.402344-80.699219-1.796875-3.402344-.5-7.703125 2.902344-9.5 3.398437-1.800781 7.699219-.5 9.5 2.898438.800781 1.5 79.597656 148.898437 163.5 182 .300781.101562 1.097656.300781 2.199219.601562 12.199218-6.703125 67.5-37.601562 90.601562-60.402344 1.597656-1.597656 3.796875-2.300781 6.097656-1.898437 2.199219.398437 4.101563 1.800781 5.101563 3.800781l19.699219 39.5c1.300781 2.5.898437 5.5-.898438 7.699219-17.703125 20.5-44.5 31.199219-77.902344 31.199219zm-21.800781-15.601563c24.203125 3.300781 61.601563 3.300781 85.703125-21.398437l-13.402344-26.898438c-20.398437 17.597656-52.699218 37.097656-72.300781 48.296875zm0 0"></path><path d="m99.679688 145.058594c-.199219 0-.5 0-.699219 0l-81.402344-8.199219c-3.796875-.402344-6.699219-3.800781-6.296875-7.699219.398438-3.902344 3.796875-6.703125 7.699219-6.300781l81.398437 8.199219c3.800782.398437 6.699219 3.800781 6.300782 7.699218-.398438 3.601563-3.398438 6.300782-7 6.300782zm0 0"></path><path d="m77.480469 117.160156c-.5 0-1-.101562-1.5-.203125-3.800781-.796875-6.101563-4.597656-5.300781-8.398437l17.898437-79.5c.800781-3.800782 4.601563-6.101563 8.402344-5.300782 3.800781.800782 6.097656 4.601563 5.300781 8.402344l-17.902344 79.5c-.800781 3.296875-3.699218 5.5-6.898437 5.5zm0 0"></path></g><path d="m167.179688 103.457031c-1.101563-1.296875-2.300782-2.5-3.5-3.699219-2.199219-2.300781-4.699219-4.398437-7.398438-6.5l6.199219-7.800781c3 2.300781 5.699219 4.800781 8.199219 7.300781 1.300781 1.300782 2.601562 2.699219 3.898437 4.101563zm0 0" fill="#fff"></path><path d="m149.179688 86.859375c-5.699219-4.300781-12.699219-8.402344-20.898438-12.101563l4.097656-9.097656c8.902344 4 16.601563 8.5 22.902344 13.296875zm0 0" fill="#fff"></path><path d="m132.28125 171.957031c-.402344 0-.703125 0-1.101562-.097656-3.800782-.601563-6.398438-4.199219-5.800782-8l8.5-54.101563c.601563-3.800781 4.199219-6.398437 8-5.800781 3.800782.601563 6.402344 4.203125 5.800782 8l-8.5 54.101563c-.5 3.5-3.5 5.898437-6.898438 5.898437zm0 0" fill="#463218"></path></svg>