<!-- icon666.com - MILLIONS vector ICONS FREE --><svg fill="none" viewBox="0 0 24 24" xmlns="http://www.w3.org/2000/svg"><path d="m22 12c0 5.5228-4.4772 10-10 10-5.52285 0-10-4.4772-10-10 0-5.52285 4.47715-10 10-10 5.5228 0 10 4.47715 10 10z" fill="#fecc6d"></path><g fill="#000"><path clip-rule="evenodd" d="m12 20.5c4.6944 0 8.5-3.8056 8.5-8.5 0-4.69442-3.8056-8.5-8.5-8.5-4.69442 0-8.5 3.80558-8.5 8.5 0 4.6944 3.80558 8.5 8.5 8.5zm0 1.5c5.5228 0 10-4.4772 10-10 0-5.52285-4.4772-10-10-10-5.52285 0-10 4.47715-10 10 0 5.5228 4.47715 10 10 10z" fill-rule="evenodd"></path><path d="m12 15.5c-.4142 0-.75-.3358-.75-.75v-2h-2c-.41421 0-.75-.3358-.75-.75s.33579-.75.75-.75h2v-2c0-.41421.3358-.75.75-.75s.75.33579.75.75v2h2c.4142 0 .75.3358.75.75s-.3358.75-.75.75h-2v2c0 .4142-.3358.75-.75.75z"></path></g></svg>