<!-- icon666.com - MILLIONS vector ICONS FREE --><svg id="Layer_1" enable-background="new 0 0 72 72" viewBox="0 0 72 72" xmlns="http://www.w3.org/2000/svg"><g id="Ranking"><g><path d="m51.6923523 19.6144218c-.0029297 0-.0058594 0-.0092773 0-.6850586 0-1.2446289.5546875-1.2495117 1.2402344l-.359375 46.2499962c-.0060577.6908951.5490685 1.2567062 1.2412109 1.2607422l9.3774414.0654297h.0092773c.3305664 0 .6416016-.1269531.8769531-.359375.0608521-.0600586.0938721-.1369629.1405029-.2062988.5036621-.3376465 1.0557861-.7907715 1.7416382-1.5583496.5721436-14.2421837.4367676-29.801754.1595459-44.0826378-.5458984-1.1741943-.8998413-1.5986328-1.5691528-2.019043-.0359497-.0490723-.0560303-.1070557-.0994873-.1512451-.234375-.2382813-.5478516-.3710938-.8818359-.3730469zm8.7612305 47.3144494-8.8774414-.0615234.3554688-45.7509727 8.8774414.0625z"></path><path d="m40.5185242 46.8458672-9.3774395-.0693359c-.0029297 0-.0058594 0-.0092773 0-.6850586 0-1.2451172.5546875-1.25 1.2402344l-.137207 18.5624962c-.0050182.6843491.5440693 1.2517014 1.2407227 1.2578125 9.9124126-.0152512 9.3961697.257309 10.0314922-.1357422.5528564-.1069336 1.1571045-.2248535 1.9205322-.5991211.3190308-6.2351036.4367676-12.5519981.1595459-18.8098106-.5122681-.4829102-1.0721436-.7587891-1.6768188-1.0428467-.2626115-.2813722-.5716173-.4017564-.9015504-.4036866zm-.394043 19.5585899-8.8779278-.0654297.1333008-18.0605431 8.8779278.0654297z"></path><path d="m21.5734577 32.8851738c-.2479706-.3732109-.6467991-.561245-1.0197754-.5637207l-9.3901377-.0625c-.0019531 0-.003418 0-.0048828 0-.6821289 0-1.2407227.5302734-1.2460938 1.1835938l-.2763671 33.3398399c-.004837.6539688.543067 1.196907 1.2358398 1.2011719h.0004883c2.6755552.0175247 9.2634306.0606537 9.3964853.0615234.3762207 0 .7026367-.1694336.9312134-.4233398.4553833-.255127.9077759-.5947266 1.6386719-1.1916504.5720825-10.3952599.5164795-21.3554649.2392578-31.7788048-.5647583-.8865967-.8961792-1.225708-1.5046997-1.7661133zm-1.557373 33.6579552-8.8774424-.0576172.2714844-32.7246056 8.8774423.0585938z"></path><path d="m42.0014343 31.4259453-4.097168.0527344-2.3662109-3.3457031c-.3550606-.5051155-1.1427727-.3860054-1.3286133.2099609l-1.2163086 3.9140625-3.9135723 1.2167969c-.5915279.1823349-.7180653.9684296-.2104492 1.328125l3.3461895 2.3662109-.0527344 4.0966797c-.003418.2851563.1552734.5488281.409668.6777344.0774117.0394096 1.6060104.2388954 1.8219604.2680664 1.2059326-.6916504 1.9798584-1.5136719 3.1588135-2.4780273l2.9733276 1.0078125c.2685547.0927734.5688477.0214844.7709961-.1796875.1650391-.1650391.2359009-.3942871.2086792-.6201172.2463989-.3220215.4928589-.644165.7392578-.9663086-.3795776-1.378418-.8972778-2.6149902-1.4365845-3.932373l1.8035889-2.4177246c.360695-.4822961.0296288-1.2084905-.6108398-1.1982423zm-5.2480468 6.4521484c-.234375-.0810547-.4916992-.0390625-.6894531.1083984l-2.3818359 1.7783203.0380859-2.9716797c.0029297-.2470703-.1152344-.4794922-.3168945-.6220703l-2.4272442-1.7167969 2.8388653-.8828125c.2358398-.0732422.4204102-.2578125.4936523-.4931641l.8823242-2.8388672 1.7163086 2.4267578c.1425781.2021484.3310547.3193359.6220703.3173828l2.972168-.0380859-1.777832 2.3828125c-.1474609.1972656-.1884766.4550781-.109375.6894531l.9545898 2.8144531z"></path><path d="m21.5893269 19.6739922-4.097168.0527344-2.3662119-3.3457031c-.3555727-.504344-1.1426649-.3863564-1.3286133.2099609l-1.2163086 3.9130859-3.9135742 1.2167969c-.591527.182333-.7180638.9684315-.2104492 1.328125l3.3461914 2.3662109-.0527344 4.0976563c-.0092402.7708645.7478027.7448692 2.2317505.9453125 1.2057495-.6914063 1.9796753-1.5134277 3.1584482-2.4776611l2.9735718 1.0079346c.5048752.1737785 1.0483646-.2303505.9796143-.8000488.24646-.3220215.492981-.6442871.7394409-.9664307-.3795776-1.3782959-.8972168-2.6148682-1.4365234-3.932251l1.8034058-2.4174805c.335102-.4480801.0935439-1.164753-.6108399-1.1982422zm-5.2475586 6.4521484c-.2348633-.0830078-.4921885-.0390625-.6894541.1083984l-2.3823242 1.7783203.0380859-2.9726563c.0029297-.2470703-.1152344-.4794922-.3168945-.6220703l-2.4272461-1.7158203 2.8388672-.8828124c.2358398-.0732422.4204102-.2578125.4936523-.4931641l.8823242-2.8388672 1.7163095 2.4267578c.1425781.2011719.3583984.3408203.6220703.3173828l2.972168-.0380859-1.777832 2.3828125c-.1474609.1972656-.1884766.4550781-.109375.6894531l.9545898 2.8144531z"></path><path d="m61.176239 7.1788745-4.097168.0527344-2.3662109-3.3457031c-.3532295-.5025129-1.1420326-.3883817-1.3286133.2099609l-1.2163086 3.914062-3.9135742 1.2167969c-.591526.1823349-.7180634.9684315-.2104492 1.328125l3.3461914 2.3662109-.0527344 4.0966806c-.0053329.4449482.3853378.837244.8927002.7368164-.0076904.0087891-.0142822.0163574-.0220337.0251465.4536743.0612793.9073486.1225586 1.3610229.1838379 1.2059326-.6916504 1.9798584-1.5136719 3.1588745-2.4780283l2.9732056 1.0078135c.509861.1761322 1.0473061-.2359772.9796753-.7995615.24646-.3221436.4929199-.6442871.7393799-.9663086-.3796387-1.3786621-.8972778-2.6151123-1.4366455-3.9326172l1.8035278-2.4177246c.3072968-.4108963.1841622-1.0692468-.6108398-1.1982417zm-5.2475586 6.452148c-.234375-.0820313-.4916992-.0390625-.6894531.1083984l-2.3823242 1.7783203.0380859-2.9716797c.0029297-.2470703-.1152344-.4794922-.3168945-.6220703l-2.4272461-1.7167969 2.8388672-.8828125c.2358398-.0732422.4204102-.2578125.4936523-.4931641l.8823242-2.8388667 1.7163086 2.4267573c.140625.1992188.3691406.3173828.6123047.3173828h.0097656l2.972168-.0380859-1.777832 2.3828125c-.1474609.1972656-.1884766.4550781-.109375.6894531l.9545898 2.8144531z"></path></g></g></svg>