<!-- icon666.com - MILLIONS vector ICONS FREE --><svg version="1.1" id="Capa_1" xmlns="http://www.w3.org/2000/svg" xmlns:xlink="http://www.w3.org/1999/xlink" x="0px" y="0px" viewBox="0 0 512 512" style="enable-background:new 0 0 512 512;" xml:space="preserve"><path style="" d="M477.16,204.676l-36.533-2.894c-3.719-12.684-8.707-24.823-14.821-36.273l24.227-27.835 c10.173-11.688,9.565-29.255-1.392-40.211l-32.558-32.557c-10.877-10.877-28.289-11.566-39.991-1.581l-27.884,23.791 c-11.391-6.233-23.482-11.341-36.125-15.188l-2.55-36.799C308.462,19.672,295.61,7.68,280.116,7.68h-46.043 c-15.383,0-28.181,11.825-29.396,27.16l-2.894,36.533c-13.319,3.905-26.041,9.205-37.991,15.743l-27.884-23.791 c-11.702-9.985-29.114-9.296-39.991,1.581L63.359,97.464c-10.956,10.956-11.564,28.523-1.392,40.211l24.227,27.835 c-6.114,11.45-11.103,23.589-14.821,36.273l-36.533,2.894c-15.335,1.215-27.16,14.013-27.16,29.396v46.043 c0,15.495,11.992,28.346,27.449,29.418l36.799,2.55c3.847,12.642,8.956,24.734,15.188,36.125l-23.792,27.884 c-9.984,11.702-9.296,29.114,1.581,39.991l32.558,32.557c10.956,10.956,28.523,11.564,40.211,1.392l27.835-24.227 c11.45,6.114,23.589,11.102,36.273,14.821l2.894,36.533c1.215,15.335,14.013,27.16,29.396,27.16h46.043 c15.494,0,28.346-11.992,29.418-27.449l2.55-36.799c12.01-3.654,23.52-8.452,34.407-14.266l27.835,24.227 c11.688,10.173,29.254,9.565,40.211-1.392l32.558-32.557c10.877-10.877,11.566-28.289,1.581-39.991l-23.792-27.884 c6.233-11.391,11.341-23.482,15.188-36.125l36.799-2.55c15.457-1.071,27.449-13.923,27.449-29.418v-46.043 C504.32,218.69,492.495,205.891,477.16,204.676z M256,348.198c-50.919,0-92.198-41.278-92.198-92.198s41.279-92.198,92.198-92.198 S348.198,205.08,348.198,256S306.919,348.198,256,348.198z" fill="#CDD2DF"></path><path style="fill: rgb(250, 128, 93);" d="M234.072,483.84c-4.667,0-8.611-3.644-8.98-8.297l-2.894-36.533 c-0.671-8.47-6.501-15.645-14.654-18.035c-11.193-3.282-22.09-7.734-32.388-13.234c-3.035-1.621-6.35-2.415-9.643-2.415 c-4.84,0-9.636,1.713-13.45,5.033l-27.835,24.227c-2.102,1.829-4.373,2.213-5.908,2.213c-1.396,0-4.079-0.342-6.375-2.638 l-32.559-32.558c-3.3-3.3-3.512-8.666-0.482-12.217l23.791-27.884c5.517-6.466,6.466-15.667,2.386-23.124 c-5.6-10.236-10.163-21.089-13.561-32.257c-2.473-8.125-9.704-13.882-18.178-14.469l-36.799-2.55 c-4.702-0.326-8.385-4.273-8.385-8.987v-46.044c0-4.667,3.645-8.611,8.297-8.98l36.533-2.894 c8.469-0.671,15.645-6.501,18.035-14.654c3.282-11.193,7.734-22.09,13.234-32.388c4.003-7.495,2.961-16.684-2.618-23.093 l-24.227-27.835c-3.094-3.555-2.908-8.951,0.425-12.284l32.558-32.558c2.295-2.295,4.979-2.638,6.375-2.638 c1.512,0,3.753,0.374,5.841,2.155l27.885,23.791c3.793,3.236,8.526,4.9,13.297,4.9c3.362,0,6.743-0.827,9.826-2.514 c10.743-5.878,22.156-10.607,33.922-14.057c8.153-2.39,13.983-9.566,14.654-18.035l2.894-36.533c0.368-4.653,4.313-8.297,8.98-8.297 h46.044c4.713,0,8.66,3.683,8.987,8.386l2.551,36.799c0.587,8.473,6.343,15.704,14.469,18.177 c11.168,3.398,22.02,7.961,32.256,13.561c3.083,1.687,6.465,2.514,9.827,2.514c4.771,0,9.504-1.664,13.297-4.9l27.884-23.791 c2.089-1.782,4.329-2.156,5.841-2.156c1.396,0,4.079,0.343,6.375,2.638l32.557,32.558c3.333,3.333,3.52,8.729,0.426,12.284 l-24.227,27.835c-5.578,6.41-6.62,15.598-2.617,23.093c5.5,10.298,9.952,21.195,13.234,32.388 c2.391,8.152,9.566,13.982,18.035,14.654l36.533,2.894c4.653,0.368,8.297,4.313,8.297,8.98v46.044c0,4.713-3.683,8.66-8.385,8.987 l-36.798,2.55c-8.473,0.587-15.705,6.344-18.177,14.469c-3.398,11.168-7.961,22.021-13.561,32.257 c-4.079,7.457-3.13,16.658,2.386,23.124l23.791,27.884c3.03,3.551,2.818,8.917-0.483,12.216l-32.558,32.557 c-2.296,2.296-4.979,2.639-6.374,2.639c-1.536,0-3.808-0.384-5.91-2.213l-27.835-24.227c-3.814-3.319-8.611-5.033-13.45-5.033 c-3.295,0-6.608,0.794-9.643,2.415c-9.793,5.229-20.129,9.516-30.721,12.738c-8.126,2.473-13.882,9.704-14.469,18.177l-2.551,36.798 c-0.326,4.702-4.273,8.385-8.987,8.385h-46.041V483.84z M256,143.322c-62.131,0-112.678,50.547-112.678,112.678 S193.869,368.678,256,368.678S368.678,318.131,368.678,256S318.131,143.322,256,143.322z" fill="#A7B7C6"></path><path style="fill: rgb(250, 128, 93);" d="M256,113.03c-78.96,0-142.97,64.01-142.97,142.97S177.04,398.97,256,398.97S398.97,334.96,398.97,256 S334.96,113.03,256,113.03z M256,348.198c-50.919,0-92.198-41.278-92.198-92.198s41.279-92.198,92.198-92.198 S348.198,205.08,348.198,256S306.919,348.198,256,348.198z" fill="#BBC6D4"></path><path style="fill: rgb(250, 128, 93);" d="M256,113.03c-78.96,0-142.97,64.01-142.97,142.97h50.772c0-50.92,41.279-92.198,92.198-92.198 S348.198,205.08,348.198,256h50.772C398.97,177.04,334.96,113.03,256,113.03z" fill="#96ABBC"></path><path d="M477.767,197.02l-31.335-2.482c-3.087-9.567-6.91-18.921-11.409-27.921l20.803-23.901 c12.768-14.669,11.997-36.932-1.754-50.684l-32.557-32.557c-13.616-13.616-35.757-14.491-50.406-1.993l-23.915,20.405 c-8.949-4.588-18.265-8.504-27.807-11.69l-2.19-31.599C315.85,15.197,299.563,0,280.116,0h-46.044 c-19.257,0-35.531,15.037-37.052,34.233l-2.482,31.334c-10.221,3.297-20.182,7.425-29.73,12.32l-23.916-20.405 c-14.649-12.498-36.79-11.623-50.406,1.993L57.929,92.033c-13.752,13.752-14.522,36.015-1.755,50.684l20.803,23.901 c-4.499,8.999-8.322,18.353-11.409,27.921l-31.335,2.482C15.037,198.541,0,214.816,0,234.072v46.044 c0,19.447,15.198,35.734,34.598,37.079l31.598,2.189c3.186,9.543,7.103,18.859,11.691,27.808l-20.405,23.915 c-12.498,14.649-11.622,36.79,1.993,50.406l32.557,32.557c13.751,13.751,36.014,14.522,50.684,1.754 c3.199-2.784,3.535-7.635,0.751-10.835c-2.785-3.2-7.637-3.535-10.835-0.751c-8.609,7.492-21.67,7.039-29.739-1.029l-32.557-32.557 c-7.989-7.989-8.503-20.981-1.17-29.576l23.792-27.884c2.068-2.424,2.425-5.875,0.895-8.672 c-6.021-11.003-10.925-22.669-14.578-34.674c-0.927-3.047-3.639-5.206-6.816-5.426l-36.799-2.55 c-11.383-0.789-20.3-10.346-20.3-21.756V234.07c0-11.298,8.823-20.848,20.086-21.74l36.533-2.894 c3.176-0.252,5.867-2.438,6.763-5.495c3.528-12.031,8.314-23.744,14.227-34.816c1.501-2.811,1.111-6.256-0.981-8.66L67.76,132.633 c-7.492-8.607-7.039-21.67,1.029-29.739l32.558-32.557c7.99-7.989,20.981-8.503,29.576-1.169l27.885,23.791 c2.424,2.069,5.876,2.425,8.671,0.895c11.548-6.319,23.817-11.403,36.464-15.111c3.058-0.896,5.244-3.588,5.496-6.764l2.894-36.533 c0.892-11.263,10.441-20.086,21.74-20.086h46.044c11.41,0,20.967,8.917,21.756,20.3l2.55,36.799c0.22,3.177,2.379,5.889,5.426,6.816 c12.005,3.653,23.672,8.558,34.674,14.578c2.795,1.53,6.246,1.174,8.672-0.895l27.884-23.791c8.595-7.334,21.586-6.82,29.576,1.169 l32.557,32.557c8.068,8.069,8.521,21.132,1.029,29.739l-24.227,27.835c-2.092,2.404-2.483,5.849-0.982,8.66 c5.913,11.072,10.699,22.786,14.227,34.816c0.896,3.057,3.587,5.243,6.763,5.495l36.533,2.894 c11.263,0.892,20.086,10.441,20.086,21.74v46.044c0,11.41-8.917,20.967-20.301,21.756l-36.799,2.55 c-3.177,0.22-5.889,2.379-6.816,5.426c-3.653,12.005-8.557,23.672-14.578,34.674c-1.53,2.797-1.174,6.247,0.895,8.672l23.792,27.883 c7.333,8.595,6.819,21.587-1.169,29.576l-32.558,32.557c-8.068,8.069-21.13,8.521-29.738,1.029l-27.835-24.227 c-2.404-2.092-5.849-2.482-8.66-0.982c-10.525,5.621-21.635,10.228-33.025,13.693c-3.047,0.928-5.206,3.639-5.426,6.816 l-2.55,36.799c-0.789,11.383-10.346,20.301-21.756,20.301h-46.044c-11.298,0-20.848-8.823-21.74-20.086l-2.894-36.533 c-0.252-3.176-2.438-5.867-5.495-6.763c-12.033-3.529-23.746-8.314-34.816-14.227c-3.741-1.997-8.395-0.585-10.393,3.156 c-1.998,3.742-0.585,8.395,3.156,10.393c10.432,5.57,21.392,10.219,32.646,13.852l2.482,31.335 C198.541,496.963,214.816,512,234.072,512h46.044c19.447,0,35.734-15.198,37.079-34.599l2.19-31.598 c8.892-2.97,17.6-6.581,25.997-10.78l23.901,20.803c14.669,12.769,36.933,11.998,50.684-1.754l32.557-32.557 c13.616-13.616,14.491-35.757,1.993-50.406l-20.406-23.915c4.588-8.949,8.505-18.266,11.691-27.808l31.598-2.189 c19.402-1.347,34.6-17.634,34.6-37.081v-46.044C512,214.816,496.963,198.541,477.767,197.02z" fill="#000000"></path><path d="M256,171.482c4.241,0,7.68-3.438,7.68-7.68s-3.439-7.68-7.68-7.68c-55.073,0-99.878,44.805-99.878,99.878 s44.805,99.878,99.878,99.878s99.878-44.805,99.878-99.878c0-35.242-18.889-68.249-49.296-86.139 c-3.655-2.151-8.363-0.931-10.514,2.725c-2.151,3.655-0.931,8.363,2.725,10.514c25.737,15.143,41.725,43.077,41.725,72.901 c0,46.603-37.915,84.518-84.518,84.518S171.482,302.603,171.482,256S209.396,171.482,256,171.482z" fill="#000000"></path></svg>