<!-- icon666.com - MILLIONS vector ICONS FREE --><svg id="Layer_1" enable-background="new 0 0 135 135" viewBox="0 0 135 135" xmlns="http://www.w3.org/2000/svg"><g><path d="m4.8693461 52.0068474c-.0251465.6435547.0343018 1.5710449.2446289 2.7148438.4412842 2.2490234 1.5594482 5.3518066 3.7857661 8.2143555 2.0892334 2.7526894 5.265625 5.2292519 8.7791758 6.4575233-.0048828.0959473-.0100098.1821289-.0150146.2817383-.0443115.8828125-1.7630625 38.6721191.0968018 46.472168.4226074 1.7717285 1.0506592 3.5576172 1.9790039 5.2587891.9128418 1.7038574 2.2026367 3.2944336 3.8050537 4.5446777 1.585083 1.2724609 3.5177002 2.1083984 5.3876953 2.6328125 1.894043.5351563 3.8186035.7963867 5.7026367.9462891 3.2442627.2556152 26.8995361 1.0910645 42.5217285.7749023 9.7089844-.074707 20.4586182.9562988 31.3538818-.5629883 1.1314697-.1589355 2.3162842-.402832 3.4797363-.8666992 1.1640625-.453125 2.2706299-1.1711426 3.1556396-2.0280762 1.7830811-1.7438965 2.7167969-3.7634277 3.3616943-5.7207031 2.4526367-7.732666 2.0406494-34.2646484 1.4462891-42.8825684-.3588867-4.7231445-.6838379-7.2714844-.9842529-8.6582031 8.3616943-2.744873 11.9061203-11.5571327 11.4724045-16.0446815-.1088867-1.1657715-.4179688-1.7526855-.697998-2.0200195-.03479-.0339355-.0692139-.0505371-.1037598-.0754395-.4920654-4.4941406-19.6263351-37.8864746-22.6647873-42.0595703-1.050415-1.4177241-2.4403076-2.9836421-4.5045166-3.9316401-2.0466309-.9367676-4.1905518-1.0239258-6.0913086-1.0322266-12.3443603.0944823-27.4016113.2617186-50.6124267.731201-1.534668.041748-3.1403809.1240234-4.7750244.4477539-1.6245117.3088379-3.3084717.9372559-4.7268066 1.8674316-1.4315186.9121089-2.6116943 2.0473628-3.6643066 3.2053218-5.1898193 5.8952637-29.013916 40.9226074-28.050415 41.5634766.0388178.0258789.1507562-.0600586.3184808-.2304687zm112.2066656 26.3339882c-.0343018 6.4990234-.3442383 35.4135742-2.364502 41.5581055-.4929199 1.5161133-1.2818604 3.0314941-2.3475342 4.0388184-4.4544678 4.3752441-77.388916 2.2299805-77.4943848 2.2236328-3.4868164-.2060547-6.9306641-.8276367-9.4173584-2.7080078-2.536377-1.8513184-4.05896-4.8754883-4.9023438-8.0224609-2.2525635-8.4101563-.7030029-20.651123-2.0651855-45.7573242-.0001221-.0039063-.0003662-.0068359-.0006104-.0107422 5.2550049 1.6586914 11.0217285 1.0976563 16.0898438-1.9711914 1.6724854-1.0390625 2.9381104-2.1210938 3.9501953-3.0935059.0712891-.0695801.1328125-.1342773.2017822-.2026367-.0076904.1003418-1.0958252 31.09375-1.0975342 31.197998-.0180664 2.3503418.0195313 4.7924805.713501 7.3806152.3725586 1.276123.9262695 2.6750488 2.1682129 3.8461914 1.3696289 1.2126465 2.9692383 1.4829102 4.2508545 1.6464844 4.9050293.5036621 9.7409668.842041 14.5157471 1.0546875 9.5180664.4370117 18.5096436.1767578 25.4664307-.3552246 3.1990967-.2373047 6.0975342-.5290527 8.9888916-.875.7701416-.1120605 1.626709-.2792969 2.501709-.661377.8800049-.3725586 1.7158203-1.0151367 2.3065186-1.7231445 1.2038574-1.4541016 1.6075439-2.9921875 1.8996582-4.3198242.6204834-3.0466309 1.9128418-17.1865234 1.3389893-28.3168945-.1502686-2.5107422-.3289795-4.0998535-.5223389-5.1083984 4.6308594 1.8513184 9.7607422 2.9355469 14.6450195 2.1582031.4641113-.0681152.9200439-.1594238 1.3708496-.2614746-.1317139 1.4763182-.2041016 3.9887694-.1964111 8.2824706zm-77.0887452-6.1838379c-.2167969-3.9057617-.4294434-6.8330078-.6291504-8.4038124.4245605-.4443359.8005371-.8620605 1.1315918-1.2519531.157959.375.3864746.8222656.6932373 1.3244629 4.8223877 7.823246 16.1800537 12.9863319 25.8493652 5.2106972.8685303-.7080078 1.4997559-1.3659668 1.973999-1.949707.2375488.3491211.668457.8212891 1.2818604 1.3798828 7.2012939 5.9038086 18.8197021 5.8583984 26.1282959.1225586.2869873-.2570801.5489502-.4916992.7884521-.7060547.4433594-.4125977.7841797-.7568359 1.019165-1.095459.3530273.1867676.7607422.3884277 1.2266846.6037598.0101318.0046387.0218506.0097656.0321045.0144043-.2216797.8911133-.4133301 2.5959473-.5837402 5.8591309-.0062256.1027832-1.1325684 21.9106445-2.3634033 27.4995117-.2197266 1.0258789-.5705566 1.9868164-1.0638428 2.536377-.2520752.2807617-.4888916.4697266-.8491211.6242676-.3608398.157959-.8569336.2729492-1.4610596.3549805-2.6324463.2993164-5.6307373.5983887-8.7254639.8251953-6.8320313.5222168-15.6507568.8918457-25.0369873.6657715-4.6756592-.104248-9.5626221-.3227539-14.279541-.6621094-1.0914307-.0822754-1.9852295-.3266602-2.444458-.7302246-.5449219-.4616699-1.0145264-1.3254395-1.3225098-2.3046875-.619873-1.987793-.7834473-4.2807617-.8447266-6.4914551-.2292479-9.26001.7075197-1.2963869-.5207518-23.4255373zm-5.0767822-59.3515663c.9581299-.9970703 1.9747314-1.9072266 3.0860596-2.5703125 1.1033936-.6757813 2.2880859-1.0881348 3.6181641-1.3149414 3.4989014-.607666 5.2075195-.0031738 54.7633057-.4309082 1.765625-.0075684 3.2884521.1264648 4.4117432.6513672 1.1147461.4926758 2.0839844 1.4760742 2.9483643 2.6379395 3.6043701 4.8481445 21.3353271 36.4677734 24.5001144 39.8825684-.0217285.0234375-.0449219.0402832-.0656738.0673828-.2082443.2768555-.3614426.7490234-.6036301 1.6203613-4.0438232 14.734623-13.9598389 14.8603554-27.6461182 12.5293007-.3969727-.0693359-.7562256-.1269531-1.0871582-.175293.1906738-.5837402-.0388184-.8608398-.3066406-1.1369629-.3907471-.4030762-.8148193-.7092323-2.1212158-.0319824-.3249512.170166-.7215576.3776855-1.2111816.6342773-8.4063721 4.8432617-15.578125 4.9401855-24.0863037 1.9431152-.6938477-.2888184-1.2591553-.505127-1.6616211-.605957.1737061-.2478027.3181152-.4772949.4372559-.6838379.883667-1.6335449.4375-1.9958534-.0019531-2.3129921-.4683838-.3405762-.9023438-.5200195-2.1705322.4226074-.6474609.4538612-1.5123291 1.1909218-2.9022217 2.0808144-6.593262 4.1699218-13.325928 4.4824218-22.4201663-3.2126503-.5142822-.4382324-.9356689-.8076172-1.2712402-1.0720215.4938965-.6318359.8745117-1.1806641 1.1724854-1.6362305 1.3238525-2.1049805.9685059-2.5061035.5435791-2.8649902-.43396-.3669434-.8826904-.5922852-2.7149658.9736328-.9246826.7644043-2.1783447 2.0021973-4.0970459 3.6000977-4.9990234 4.0383339-10.578125 5.8728065-16.8260498 4.1606483-3.0386963-.7695313-5.9385996-2.6245155-8.1096201-4.896244-2.1976318-2.2578125-3.6005855-4.8557129-4.4581294-6.8056641-.5755615-1.3510742-.9248047-2.3891602-1.1859131-2.9025879 2.6135249-3.1496582 24.7506108-33.5151367 29.466309-38.5505371z"></path></g></svg>