<!-- icon666.com - MILLIONS vector ICONS FREE --><svg version="1.1" id="Layer_1" xmlns="http://www.w3.org/2000/svg" xmlns:xlink="http://www.w3.org/1999/xlink" x="0px" y="0px" viewBox="0 0 512 512" style="enable-background:new 0 0 512 512;" xml:space="preserve"><g><g><path d="M510.504,195.362c-3.499-10.728-12.581-18.522-23.702-20.341l-139.454-22.804L282.757,25.04 C277.611,14.902,267.359,8.603,256,8.603c-11.357,0-21.611,6.297-26.76,16.435l-64.59,127.179L25.196,175.021 c-11.124,1.82-20.206,9.615-23.701,20.342c-3.495,10.723-0.76,22.379,7.141,30.419l99.73,101.511L86.671,468.765 c-1.719,11.204,2.91,22.29,12.082,28.931c5.152,3.729,11.236,5.701,17.593,5.701c4.721,0,9.441-1.136,13.647-3.286L256,435.7 l126.007,64.412c4.207,2.149,8.926,3.285,13.645,3.285c6.357,0,12.441-1.972,17.594-5.702 c9.172-6.642,13.801-17.728,12.082-28.929l-21.694-141.474l99.729-101.51C511.265,217.742,514.001,206.086,510.504,195.362z M492.185,214.798l-105.233,107.11l22.883,149.233c0.823,5.368-1.393,10.679-5.781,13.857c-2.461,1.783-5.367,2.724-8.402,2.724 c-2.253,0-4.506-0.542-6.514-1.568L256,418.099l-133.14,68.059c-2.007,1.026-4.261,1.568-6.513,1.568 c-3.035,0-5.941-0.941-8.401-2.723c-4.391-3.179-6.606-8.49-5.782-13.859l22.883-149.233L19.814,214.8 c-3.785-3.852-5.094-9.438-3.418-14.578c1.673-5.134,6.013-8.862,11.329-9.731l147.299-24.087l68.19-134.266 c2.463-4.848,7.361-7.86,12.785-7.86c5.424,0,10.323,3.01,12.783,7.86l68.19,134.266l147.3,24.086 c5.315,0.869,9.657,4.598,11.33,9.732C497.279,205.362,495.969,210.947,492.185,214.798z"></path></g></g><g><g><path d="M510.504,195.362c-3.499-10.728-12.581-18.522-23.702-20.341l-139.454-22.804L282.757,25.04 C277.611,14.902,267.359,8.603,256,8.603c-11.357,0-21.611,6.297-26.76,16.435l-64.59,127.179L25.196,175.021 c-11.124,1.82-20.206,9.615-23.701,20.342c-3.495,10.723-0.76,22.379,7.141,30.419l99.73,101.511L86.671,468.765 c-1.719,11.204,2.91,22.29,12.082,28.931c5.152,3.729,11.236,5.701,17.593,5.701c4.721,0,9.441-1.136,13.647-3.286L256,435.7 l126.007,64.412c4.207,2.149,8.926,3.285,13.645,3.285c6.357,0,12.441-1.972,17.594-5.702 c9.172-6.642,13.801-17.728,12.082-28.929l-21.694-141.474l99.729-101.51C511.265,217.742,514.001,206.086,510.504,195.362z M492.185,214.798l-105.233,107.11l22.883,149.233c0.823,5.368-1.393,10.679-5.781,13.857c-2.461,1.783-5.367,2.724-8.402,2.724 c-2.253,0-4.506-0.542-6.514-1.568L256,418.099l-133.14,68.059c-2.007,1.026-4.261,1.568-6.513,1.568 c-3.035,0-5.941-0.941-8.401-2.723c-4.391-3.179-6.606-8.49-5.782-13.859l22.883-149.233L19.814,214.8 c-3.785-3.852-5.094-9.438-3.418-14.578c1.673-5.134,6.013-8.862,11.329-9.731l147.299-24.087l68.19-134.266 c2.463-4.848,7.361-7.86,12.785-7.86c5.424,0,10.323,3.01,12.783,7.86l68.19,134.266l147.3,24.086 c5.315,0.869,9.657,4.598,11.33,9.732C497.279,205.362,495.969,210.947,492.185,214.798z"></path></g></g></svg>