<!-- icon666.com - MILLIONS vector ICONS FREE --><svg fill="none" viewBox="0 0 29 20" xmlns="http://www.w3.org/2000/svg"><g fill="rgb(0,0,0)"><path clip-rule="evenodd" d="m7.39212 15.7137c-5.77861 0-7.39212-2.2854-7.39212-5.7123s2.13884-5.71789 7.39212-5.71789c2.86028 0 3.85168-1.26982 4.75498-2.42671.7558-.967926 1.4498-1.8568 3.1249-1.8568 3.6773 0 4.728 4.28351 4.728 10.0014 0 5.7179-1.0507 9.9986-4.728 9.9986-1.6317 0-2.2291-.844-2.8937-1.783-.8331-1.177-1.7718-2.5033-4.98618-2.5033zm-.00002-2c-2.69394 0-3.94765-.5449-4.53497-1.0665-.52447-.4657-.85713-1.2207-.85713-2.6458 0-1.27972.38138-2.08232 1.01273-2.61285.69163-.58118 2.00196-1.10504 4.37939-1.10504 1.59915 0 2.87558-.33014 3.92808-.93592 1.0317-.59383 1.6977-1.37067 2.1668-1.95916.1138-.14282.2117-.26736.298-.37707.3189-.40571.4783-.60844.6945-.78187.1453-.11655.3276-.22949.7925-.22949.4994 0 .8068.13383 1.0432.32233.2675.21327.5694.60101.8458 1.28417.5718 1.41348.839 3.59227.839 6.3949 0 2.8027-.2673 4.9806-.8389 6.3932-.2763.6827-.5781 1.0701-.8455 1.2832-.2363.1883-.5439.3222-1.0436.3222-.4531 0-.5729-.1048-.6506-.1729l-.003-.0026c-.1661-.1452-.2708-.2926-.4955-.6091-.1009-.142-.226-.3183-.3916-.5434-.4606-.6264-1.1242-1.4296-2.2149-2.0363-1.0898-.6063-2.42972-.922-4.1243-.922z" fill-rule="evenodd"></path><path d="m26 7c0-.55228-.4477-1-1-1s-1 .44772-1 1v2h-2c-.5523 0-1 .44772-1 1 0 .5523.4477 1 1 1h2v2c0 .5523.4477 1 1 1s1-.4477 1-1v-2h2c.5523 0 1-.4477 1-1 0-.55228-.4477-1-1-1h-2z"></path></g></svg>