<!-- icon666.com - MILLIONS vector ICONS FREE --><svg fill="none" viewBox="0 0 29 20" xmlns="http://www.w3.org/2000/svg"><g fill="rgb(0,0,0)"><path clip-rule="evenodd" d="m0 10.0014c0 3.4269 1.61351 5.7123 7.39212 5.7123 3.21438 0 4.15308 1.3263 4.98618 2.5033.6646.939 1.262 1.783 2.8937 1.783 3.6773 0 4.728-4.2807 4.728-9.9986 0-5.71789-1.0507-10.0014-4.728-10.0014-1.6751 0-2.3691.888874-3.1249 1.8568-.9033 1.15689-1.8947 2.42671-4.75498 2.42671-5.25328 0-7.39212 2.29099-7.39212 5.71789zm2.85713 2.6458c.58732.5216 1.84103 1.0665 4.53497 1.0665 1.69458 0 3.0345.3157 4.1243.922 1.0907.6067 1.7543 1.4099 2.2149 2.0363.1654.2249.2905.4011.3913.543.2248.3165.3297.4643.4958.6095l.003.0026c.0777.0681.1975.1729.6506.1729.4997 0 .8073-.1339 1.0436-.3222.2674-.2131.5692-.6005.8455-1.2832.5716-1.4126.8389-3.5905.8389-6.3932 0-2.80263-.2672-4.98142-.839-6.3949-.2764-.68316-.5783-1.0709-.8458-1.28417-.2364-.1885-.5438-.32233-1.0432-.32233-.4649 0-.6472.11294-.7925.22949-.2162.17343-.3756.37616-.6945.78187-.0863.10971-.1842.23425-.298.37707-.4691.58849-1.1351 1.36533-2.1668 1.95916-1.0525.60578-2.32893.93592-3.92808.93592-2.37743 0-3.68776.52386-4.37939 1.10504-.63135.53053-1.01273 1.33313-1.01273 2.61285 0 1.4251.33266 2.1801.85713 2.6458z" fill-rule="evenodd"></path><path d="m21 10c0-.55228.4477-1 1-1h6c.5523 0 1 .44772 1 1 0 .5523-.4477 1-1 1h-6c-.5523 0-1-.4477-1-1z"></path></g></svg>